<?xml version="1.0" encoding="UTF-8"?>
<svg id="Layer_2" data-name="Layer 2" xmlns="http://www.w3.org/2000/svg" viewBox="0 0 205.77 192.65">
  <defs>
    <style>
      .cls-1 {
        fill: #f43f5e;
      }

      .cls-2 {
        fill: rgba(244, 63, 94, .3);
        stroke: #f43f5e;
        stroke-miterlimit: 10;
        stroke-width: 19.76px;
      }
    </style>
  </defs>
  <g id="Layer_1-2" data-name="Layer 1">
    <g>
      <path class="cls-2" d="M195.89,14.85v158.15c0,2.74-2.23,4.97-4.97,4.97h-7.28l-23.49-28.56c-1.98-2.42-5.7-2.42-7.7,0l-19.53,23.76-19.55-23.76c-2-2.42-5.72-2.42-7.7,0l-25.1,28.56h0l-26.97-28.56c-1.98-2.42-5.7-2.42-7.7,0l-23.49,28.56h-7.56c-2.74,0-4.97-2.23-4.97-4.97V14.85c0-2.74,2.23-4.97,4.97-4.97h176.06c2.74,0,4.97,2.23,4.97,4.97Z"/>
      <g>
        <path class="cls-1" d="M67.18,41.6h18.61l27.19,74.31h-18.38l-5.68-17.05h-26.18l-5.68,17.05h-17.6l27.74-74.31ZM84.89,85.83l-9.02-28.08-9.25,28.08h18.27Z"/>
        <path class="cls-1" d="M121.88,74.02h15.6v-15.82h13.15v15.82h15.71v12.81h-15.71v15.6h-13.15v-15.6h-15.6v-12.81Z"/>
      </g>
    </g>
  </g>
</svg>