<?xml version="1.0" encoding="UTF-8"?>
<svg id="Layer_2" data-name="Layer 2" xmlns="http://www.w3.org/2000/svg" viewBox="0 0 2591.94 2505.27">
  <defs>
    <style>
      .cls-1 {
        fill: none;
        stroke-width: 117px;
      }

      .cls-1, .cls-2 {
        stroke: #69cc40;
        stroke-miterlimit: 10;
      }

      .cls-2 {
        fill: #69cc40;
        stroke-width: 80px;
      }
    </style>
  </defs>
  <g id="Layer_1-2" data-name="Layer 1">
    <path class="cls-1" d="M2243.36,1354.34c0,147.43-28.91,290.5-85.91,425.25-55.02,130.11-133.77,246.93-234.07,347.22-100.28,100.28-217.1,179.03-347.2,234.07-134.75,56.98-277.82,85.89-425.26,85.89-137.59,0-271.4-25.18-398.19-74.88-9.05-3.54-18.08-7.21-27.06-11.01-130.1-55.04-246.92-133.79-347.21-234.07-79.99-79.99-146.28-170.5-197.77-269.89-13.05-25.21-25.16-51-36.3-77.33-41.17-97.34-67.68-199.01-79.22-303.54-4.44-40.17-6.67-80.77-6.67-121.71s2.23-81.53,6.67-121.71c11.54-104.53,38.05-206.21,79.22-303.54,55.03-130.1,133.78-246.91,234.07-347.21,100.29-100.29,217.11-179.04,347.21-234.07,134.75-56.99,277.82-85.89,425.25-85.89s290.51,28.9,425.26,85.89c26.32,11.13,52.09,23.24,77.3,36.3l-41.66,41.66-41.92,41.93c-127.04-60.14-269.08-93.78-418.98-93.78-541.47,0-980.42,438.95-980.42,980.42,0,149.9,33.64,291.94,93.79,418.98,113.52,239.82,321.47,426.21,575.84,511.17,97.66,32.62,202.16,50.28,310.79,50.28,541.48,0,980.44-438.96,980.44-980.43,0-108.62-17.67-213.12-50.3-310.78l43.98-43.98,43.43-43.43c49.71,126.78,74.89,260.6,74.89,398.19Z"/>
    <path class="cls-2" d="M2551.94,170.08c0,31.02-12.08,60.19-34.02,82.13L945.76,1824.36c-25.52,25.52-59.37,39.57-95.34,39.57-17.8,0-35.21-3.47-51.73-10.32-50.6-20.96-83.3-69.89-83.3-124.66v-698.52c0-64.04,52.11-116.15,116.15-116.15h19.71c64.04,0,116.14,52.11,116.14,116.15v415.92l873.52-873.53,498.81-498.81c21.94-21.93,51.11-34.01,82.13-34.01s60.2,12.08,82.13,34.01l13.94,13.94c21.93,21.93,34.01,51.1,34.01,82.13Z"/>
  </g>
</svg>