<?xml version="1.0" encoding="UTF-8"?>
<svg id="Layer_2" data-name="Layer 2" xmlns="http://www.w3.org/2000/svg" viewBox="0 0 2490.43 2490.43">
  <defs>
    <style>
      .cls-1 {
        fill: none;
        stroke: #f41700;
        stroke-miterlimit: 10;
        stroke-width: 166px;
      }

      .cls-2 {
        fill: #f41700;
      }
    </style>
  </defs>
  <g id="Layer_1-2" data-name="Layer 1">
    <circle class="cls-1" cx="1245.21" cy="1245.21" r="1162.21"/>
    <g>
      <path class="cls-2" d="M1577.31,1915.88c-21.44,0-41.41-10.61-53.41-28.38l-278.69-412.92-278.68,412.91c-11.99,17.77-31.96,28.39-53.41,28.39h-282.07c-23.92,0-45.74-13.13-56.94-34.27-11.2-21.14-9.81-46.57,3.63-66.36l380.7-560.79-393.04-579.29c-13.43-19.79-14.82-45.22-3.61-66.36,11.2-21.14,33.02-34.27,56.94-34.27h282.05c21.4,0,41.34,10.58,53.35,28.29l290.22,428.41,292.08-428.55c12.01-17.62,31.92-28.15,53.25-28.15h282.06c23.92,0,45.74,13.13,56.94,34.27,11.2,21.14,9.82,46.56-3.62,66.36l-393.04,579.29,380.7,560.79c13.44,19.79,14.83,45.22,3.63,66.36-11.2,21.14-33.02,34.27-56.94,34.27h-282.07Z"/>
      <path class="cls-2" d="M1852.28,662.64l-401.24,591.38,389.51,573.76h-281.86s-309.27-458.23-309.27-458.23h-7.81s-309.27,458.23-309.27,458.23h-281.86s389.51-573.76,389.51-573.76l-333.4-491.39c-28.85-42.52,1.61-99.99,52.99-99.99h58.1c64.35,0,124.52,31.91,160.61,85.19l263.32,388.7h5.85s322.99-473.9,322.99-473.9h281.83Z"/>
    </g>
  </g>
</svg>