<?xml version="1.0" encoding="UTF-8"?>
<svg id="Layer_2" data-name="Layer 2" xmlns="http://www.w3.org/2000/svg" viewBox="0 0 212.42 212.42">
  <defs>
    <style>
      .cls-1 {
        fill: none;
        stroke: #ed1c24;
        stroke-miterlimit: 10;
        stroke-width: 9.8px;
      }

      .cls-2 {
        fill: #ed1c24;
      }
    </style>
  </defs>
  <g id="Layer_1-2" data-name="Layer 1">
    <circle class="cls-1" cx="106.21" cy="106.21" r="101.31"/>
    <path class="cls-2" d="M93.25,137.08v-31.88c0-1.09-.04-2.08-.11-3-.51-6.39,3.72-12.26,9.95-13.75,3.58-.86,7-2.02,10.58-3.53,1.77-.75,3.73.53,3.73,2.45v49.71c0,3.65.8,8.8,2.16,12.29.68,1.76-.58,3.65-2.46,3.65h-23.5c-1.88,0-3.15-1.88-2.48-3.64,1.33-3.5,2.13-8.65,2.13-12.3ZM110.62,55.76c1.71.84,3.16,2.15,4.15,3.77,6.79,11.16-1.17,22.73-11.58,22.73-7.97,0-14.22-6.37-14.22-14.22,0-10.02,10.51-17.77,21.66-12.28Z"/>
  </g>
</svg>