<?xml version="1.0" encoding="UTF-8"?>
<svg id="Layer_2" data-name="Layer 2" xmlns="http://www.w3.org/2000/svg" viewBox="0 0 225.33 198.37">
  <defs>
    <style>
      .cls-1 {
        stroke-width: 11.39px;
      }

      .cls-1, .cls-2 {
        fill: #eab308;
      }

      .cls-1, .cls-2, .cls-3 {
        stroke: #eab308;
        stroke-miterlimit: 10;
      }

      .cls-2, .cls-3 {
        stroke-width: 8px;
      }

      .cls-3 {
        fill: rgba(234, 179, 8, .51);
      }
    </style>
  </defs>
  <g id="Layer_1-2" data-name="Layer 1">
    <path class="cls-3" d="M221.33,35.55v96.23l-43.78-64.17c-6.88-10.09-21.75-10.09-28.63,0l-65.73,96.34-29.97-51.91c-4.68-8.11-16.39-8.11-21.08,0l-27.8,48.16c-.09.16-.34.09-.34-.09V35.73c0-17.52,14.21-31.73,31.73-31.73h154.05c17.42,0,31.55,14.13,31.55,31.55Z"/>
    <path class="cls-2" d="M220.04,129.89c.84,1.23,1.29,2.68,1.29,4.17v28.75c0,17.43-14.13,31.56-31.55,31.56H35.55c-17.42,0-31.55-14.13-31.55-31.56h0c0-1.33.35-2.64,1.02-3.79l27.13-46.98c4.69-8.11,16.4-8.11,21.08,0l23.94,41.47c2.79,4.83,9.67,5.09,12.82.48l58.94-86.38c6.88-10.09,21.75-10.09,28.63,0l42.49,62.28Z"/>
    <circle class="cls-1" cx="67.69" cy="50.72" r="12.66"/>
  </g>
</svg>