<?xml version="1.0" encoding="UTF-8"?>
<svg id="Layer_2" data-name="Layer 2" xmlns="http://www.w3.org/2000/svg" viewBox="0 0 2618.81 521.64">
  <defs>
    <style>
      .cls-1 {
        fill: #d4af37;
      }
    </style>
  </defs>
  <g id="Layer_1-2" data-name="Layer 1">
    <g>
      <path class="cls-1" d="M2545.84,329.96l62.7.08c-15.99,25.28-27.53,105.08-49.6,122.23-22.49,17.48-94.99,19.01-75.84,53.44-40.99-2.32-75.44-.27-107.59,15.93h-1218.78c-15.92-10.73-44.33-14.55-67.19-15.99-124.44-7.82-524.66,13.92-634.89-1.16-15.11-2.07-33.67-7.45-33.55-17.41l17.39-10.27-8.98-21.19,18.63-8.45-119.7-5.06-5.67-21.64c-3.52-2.29-86.02,1.83-103.71.45-15.97-1.25-10.72-8.72-19.51-10.73-17.29-3.94,150.58,2.98,141.69-16.24l-117.06-5.41c9.32-20.85-23.3-9.91-17.91-26.56,21.64-1.54,47.04,2,67.78.39,16.64-1.29,11.8-10.05,18.93-10.98,18.26-2.36,41.38,2.66,59.72-.93,14.38-2.82,27.75-25.77,37.24-25.77h363.52c2.01-9.37-20.25-5.05-31.27-5.32-91.58-2.26-385.2,3.33-476.01.22-11.93-.41-152.54-6.83-120.57-21.48,35.49,9.98,52.71-16,76.13-16h174.76c7.17-20.05-44.37-7.29-65.44-10.53-9.45-1.45-8.7-12.82-20.73-15.29-17.51-3.6-57.82,2.4-64.92-1.62-2.42-1.37-14.28-25.75-37.11-31.06,46.85,8.1,84.69-7.99,120.51-10.97,55.76-4.65,332.38,6.09,386.34.25,15.37-1.67,25.17-5.69,22.41-15.91l-565.15-5.38,5.25-16.46,30.62-4.88c-3.25-15.45-46.58-7.58-53.11-11.26l-5.54-15.66-84.67.34c-14.07-6.37-.21-9.71,13.2-10.65,49.18-3.43,107.04-3.74,156.98-5.35l-26.8-10.54,152.26-.11,179.9-10.54,26.79-5.32c-121.17-10.7-251.14-4.56-371.75-10.77-58.79-3.02-115.4-15.97-174.86-15.93-8.82-21.97,69.76-5.13,80.6-10.65,10.27-13.39-17.23-9.72-18.18-13.23-2.31-8.57.96-14.89,15.18-17.83,200.72-8.74,418.64,8.71,617.24-.66,181.91-8.58,362.07-19.59,545.98-21.7,432.12-4.97,865.5,2.94,1297.67,1.7l24.36,4.11-1.34,38.59-34.29,17.01,70.7,27-8.93,39.27-26.03.34c3.6,18.88,25.6,11.17,35.87,21.19-35.72-4.52-35.04,5-53.59,18.71,26.54,8.8,34.39,15.45,36.63,34.09l35.16,3.5c5.93,18.76-13.13,89.21-31.32,103.6-12.41,9.81-40.4-.8-40.56,10.44Z"/>
      <rect class="cls-1" x="914.77" y="0" width="1200.86" height="5.32"/>
    </g>
  </g>
</svg>