<?xml version="1.0" encoding="UTF-8"?>
<svg id="Layer_2" data-name="Layer 2" xmlns="http://www.w3.org/2000/svg" viewBox="0 0 2837.71 2616.49">
  <defs>
    <style>
      .cls-1 {
        fill: none;
        stroke: #fabc38;
        stroke-miterlimit: 10;
        stroke-width: 24.78px;
      }

      .cls-2 {
        fill: #fabc38;
        font-family: BlabelooMagdySoliman, 'Blabeloo  MagdySoliman';
        font-size: 922.04px;
      }
    </style>
  </defs>
  <g id="Layer_1-2" data-name="Layer 1">
    <g>
      <path class="cls-1" d="M1420.6,997.87V349.18c0-1.67.7-3.27,1.95-4.38,34.97-31.3,96.66-78.48,185.49-109.58,82.82-29,155.57-32.24,201.81-30.59,3.17.11,5.67,2.72,5.67,5.9v626.22c0,3.18-2.52,5.79-5.7,5.89-55.9,1.82-149.78,12.79-249.85,65.63-56.14,29.64-98.79,64.3-129.36,93.84-3.75,3.62-10,.98-10-4.23Z"/>
      <path class="cls-1" d="M1170.32,652.83c.57-211.52,1.15-423.03,1.72-634.55.01-3.97,3.84-6.79,7.63-5.62,43.23,13.31,108.51,40.97,160.15,101.12,65.93,76.78,80.77,166.48,80.77,232.78v665.45c2.55-18.33,20.47-164.85-85.83-270.73-58.46-58.24-126.63-76.42-159.66-82.63-2.79-.52-4.8-2.97-4.79-5.81Z"/>
      <path class="cls-1" d="M1863.59,956.34c-29.91-15.85-123.77-60.7-245.53-40.48-99.12,16.45-165.19,67.46-193.75,92.82-2.15,1.91-5.35,1.98-7.6.18-32.69-26.14-98.55-71.07-193.26-87.94-117.16-20.87-211.08,13.19-252.3,31.6-3.91,1.75-8.31-1.1-8.31-5.38V340.25c0-2.35,1.4-4.46,3.54-5.41,12.39-5.46,26.83-10.89,43.19-15.44,21.02-5.85,40.25-8.87,56.66-10.36,3.06-.28,5.38-2.84,5.36-5.91-.51-72.84-1.02-145.68-1.53-218.52-.02-3.46,2.9-6.2,6.35-5.93,14.59,1.17,33.33,4.29,53.91,12.03,15.03,5.66,27.47,12.44,37.27,18.74,1.69,1.09,2.72,2.96,2.72,4.97v543.34"/>
      <path class="cls-1" d="M1413.21,971.52c-28.14-40.75-71.27-93.77-134.1-144.22-76.24-61.22-151.21-94.33-203.5-112.49-2.38-.83-3.98-3.06-3.98-5.57v-400.63"/>
      <path class="cls-1" d="M1815.51,829.82v-499.03c0-4.38,4.61-7.24,8.54-5.28,5.91,1.5,12.58,3.63,19.68,6.73,12.45,5.43,22.16,12.03,29.25,17.73.47.24,1.57.86,2.38,2.17.56.91.88,1.98.88,3.1v650.84c0,3.26-2.64,5.9-5.9,5.9h-449.74l-452-9.99c-3.21-.07-5.77-2.69-5.77-5.9v-67.61"/>
      <path class="cls-1" d="M962.83,359.2c-7.65-2.61-19.55-5.65-34.3-5.45-10.97.15-20.25,2.06-27.26,4.11-2.51.74-4.23,3.04-4.23,5.66v703.3c0,3.26,2.64,5.9,5.9,5.9h461.69c1.83,0,3.56-.84,4.67-2.3,5.27-6.92,22.77-26.56,51.3-26.07,27.43.47,44.01,19.21,49.16,26.04,1.11,1.48,2.85,2.33,4.69,2.33h454.08c3.26,0,5.9-2.64,5.9-5.9V365.1c0-3.26-2.64-5.9-5.9-5.9-6.43-.37-13.2-.59-20.28-.6-7.76-.01-15.15.22-22.14.63"/>
    </g>
    <text class="cls-2" transform="translate(0 2099.19)"><tspan x="0" y="0">بيرفكت</tspan></text>
  </g>
</svg>