<?xml version="1.0" encoding="UTF-8"?>
<svg id="Layer_2" data-name="Layer 2" xmlns="http://www.w3.org/2000/svg" viewBox="0 0 1783.76 2429.5">
  <defs>
    <style>
      .cls-1 {
        fill: rgba(244, 23, 0, .48);
        stroke: #f41700;
        stroke-miterlimit: 10;
        stroke-width: 80px;
      }

      .cls-2 {
        fill: #f41700;
      }
    </style>
  </defs>
  <g id="Layer_1-2" data-name="Layer 1">
    <path class="cls-1" d="M1576,107.05v260.31h-522.87c-13.49,0-26.67,4.07-37.81,11.68l-415.76,283.87-362.56,247.56c-18.3,12.49-29.24,33.22-29.24,55.38v1096.28h-100.71c-37.03,0-67.05-30.02-67.05-67.05V107.05c0-37.03,30.02-67.05,67.05-67.05h1401.89c37.03,0,67.05,30.02,67.05,67.05Z"/>
    <path class="cls-1" d="M1576,367.36v1627.72c0,37.03-30.02,67.05-67.05,67.05H207.76V965.85c0-22.16,10.94-42.88,29.24-55.38l362.56-247.56,415.76-283.87c11.14-7.61,24.32-11.68,37.81-11.68h522.87Z"/>
    <path class="cls-1" d="M1743.76,434.41v1888.03c0,37.03-30.02,67.05-67.05,67.05H274.81c-37.03,0-67.05-30.02-67.05-67.05v-260.32h1301.19c37.03,0,67.05-30.02,67.05-67.05V367.36h100.71c37.03,0,67.05,30.02,67.05,67.05Z"/>
    <path class="cls-2" d="M498.04,1120.93h23.34c21.17,0,42.35,0,63.52,0h751.94c11.32,0,22.65.09,33.97,0,.48,0,.96,0,1.44,0,13.46,0,27.6-5.86,37.12-15.38s15.96-24.05,15.38-37.12-5.07-27.66-15.38-37.12-22.9-15.38-37.12-15.38h-23.34c-21.17,0-42.35,0-63.52,0h-579.85c-33.32,0-66.64,0-99.96,0-24.04,0-48.09,0-72.13,0-11.32,0-22.65-.09-33.97,0-.48,0-.96,0-1.44,0-13.46,0-27.6,5.86-37.12,15.38-9.11,9.11-15.96,24.05-15.38,37.12s5.07,27.66,15.38,37.12,22.9,15.38,37.12,15.38h0Z"/>
    <path class="cls-2" d="M498.04,1496.76h838.81c11.32,0,22.65.09,33.97,0,.48,0,.96,0,1.44,0,13.46,0,27.6-5.86,37.12-15.38,9.11-9.11,15.96-24.05,15.38-37.12s-5.07-27.66-15.38-37.12-22.9-15.38-37.12-15.38h-838.81c-11.32,0-22.65-.09-33.97,0-.48,0-.96,0-1.44,0-13.46,0-27.6,5.86-37.12,15.38s-15.96,24.05-15.38,37.12,5.07,27.66,15.38,37.12,22.9,15.38,37.12,15.38h0Z"/>
    <path class="cls-2" d="M498.04,1880.76h838.81c11.32,0,22.65.09,33.97,0,.48,0,.96,0,1.44,0,13.46,0,27.6-5.86,37.12-15.38s15.96-24.05,15.38-37.12-5.07-27.66-15.38-37.12-22.9-15.38-37.12-15.38h-666.71c-33.32,0-66.64,0-99.96,0-24.04,0-48.09,0-72.13,0-11.32,0-22.65-.09-33.97,0-.48,0-.96,0-1.44,0-13.46,0-27.6,5.86-37.12,15.38s-15.96,24.05-15.38,37.12,5.07,27.66,15.38,37.12c10.27,9.43,22.9,15.38,37.12,15.38h0Z"/>
  </g>
</svg>