<?xml version="1.0" encoding="UTF-8"?>
<svg id="Layer_2" data-name="Layer 2" xmlns="http://www.w3.org/2000/svg" viewBox="0 0 2351.47 2351.47">
  <defs>
    <style>
      .cls-1 {
        fill: none;
        stroke: #f41700;
        stroke-miterlimit: 10;
        stroke-width: 121px;
      }

      .cls-2 {
        fill: #f41700;
      }
    </style>
  </defs>
  <g id="Layer_1-2" data-name="Layer 1">
    <circle class="cls-1" cx="1175.73" cy="1175.73" r="1115.23"/>
    <line class="cls-1" x1="1955.12" y1="378.05" x2="384.05" y2="1961.21"/>
    <path class="cls-2" d="M787.58,752.93v-155.44c0-8.6-.6-17.52.48-26.07l-1.52,11.3c.62-4,1.65-7.83,3.12-11.59l-4.28,10.15c1.71-4.05,3.85-7.79,6.48-11.31-2.22,2.87-4.43,5.73-6.65,8.6,2.7-3.43,5.72-6.46,9.15-9.16-2.87,2.22-5.73,4.43-8.6,6.65,3.53-2.63,7.26-4.77,11.31-6.48l-10.15,4.28c3.77-1.47,7.6-2.5,11.6-3.12l-11.3,1.52c9.39-1.19,19.23-.48,28.66-.48h811.29c10.96,0,21.92-.05,32.88,0,2.76.01,5.49.17,8.24.51l-11.3-1.52c4.05.66,7.86,1.71,11.67,3.22l-10.15-4.28c4.17,1.82,8.01,4.07,11.62,6.85-2.87-2.22-5.73-4.43-8.6-6.65,3.28,2.67,6.17,5.64,8.76,8.98l-6.65-8.6c2.51,3.44,4.57,7.07,6.24,10.99l-4.28-10.15c1.59,4.07,2.65,8.2,3.24,12.53l-1.52-11.3c1.25,11.83.36,24.13.36,35.99v84.45c0,41.74,0,83.49,0,125.23,0,51.03,0,102.05,0,153.08v725.02c0,14.9.04,29.81,0,44.71,0,2.48-.09,4.93-.33,7.42.51-3.77,1.01-7.53,1.52-11.3-.63,4.63-1.76,9.03-3.51,13.35l4.28-10.15c-1.65,3.75-3.66,7.23-6.09,10.53,2.22-2.87,4.43-5.73,6.65-8.6-2.78,3.57-5.91,6.7-9.48,9.49l8.6-6.65c-3.29,2.43-6.77,4.45-10.52,6.09l10.15-4.28c-3.88,1.58-7.83,2.68-11.97,3.34l11.3-1.52c-9.46,1.24-19.4.51-28.91.51h-811.71c-10.85,0-21.7.04-32.55,0-2.65,0-5.27-.15-7.9-.48l11.3,1.52c-4-.62-7.83-1.65-11.6-3.12l10.15,4.28c-4.05-1.71-7.79-3.86-11.31-6.48,2.87,2.22,5.73,4.43,8.6,6.65-3.43-2.7-6.45-5.73-9.15-9.16,2.22,2.87,4.43,5.73,6.65,8.6-2.63-3.53-4.77-7.26-6.48-11.31l4.28,10.15c-1.47-3.77-2.5-7.6-3.12-11.59l1.52,11.3c-1.05-8.34-.48-17.03-.48-25.41v-192.88c0-10.9-4.74-22.34-12.45-30.05s-19.47-12.92-30.05-12.45c-23.03,1.03-42.5,18.67-42.5,42.5v73.75c0,38.26,0,76.52,0,114.78,0,7.62-.09,15.24,0,22.86.27,23.61,9.16,44.76,24.59,62.37,15.92,18.16,39.27,27.03,62.77,29,8.62.72,17.48.17,26.11.17,20.49,0,40.99,0,61.48,0,30.66,0,61.31,0,91.97,0h112.25c41.3,0,82.59,0,123.89,0s83.7,0,125.55,0c39.07,0,78.14,0,117.21,0,33.42,0,66.85,0,100.27,0,24.43,0,48.85,0,73.28,0,12.22,0,24.44,0,36.66,0,17.5,0,35.35-3.95,50.27-13.44,27.17-17.3,43.59-46.5,43.78-78.82.05-8,0-16.01,0-24.01,0-18.1,0-36.21,0-54.31,0-26.31,0-52.62,0-78.93,0-32.96,0-65.92,0-98.88,0-37.75,0-75.51,0-113.26,0-40.62,0-81.23,0-121.85,0-42.04,0-84.07,0-126.11s0-83.07,0-124.6,0-78.23,0-117.34c0-35.24,0-70.49,0-105.73,0-29.44,0-58.89,0-88.33,0-21.8,0-43.61,0-65.41,0-12.55,0-25.1,0-37.65,0-2.26.02-4.53,0-6.79-.15-14.75-3.61-26.95-9.4-40.23-10.04-23.02-31.29-39.06-54.42-47.27-14.96-5.31-31.49-4.34-47.15-4.34-19.8,0-39.59,0-59.39,0-30.15,0-60.29,0-90.44,0-37.25,0-74.51,0-111.76,0-41.01,0-82.01,0-123.02,0s-83.81,0-125.72,0c-39.46,0-78.92,0-118.39,0-33.71,0-67.42,0-101.13,0-25.05,0-50.1,0-75.15,0-13.03,0-26.06,0-39.09,0-11.24,0-22.79,1.02-33.3,5.12-21.7,8.45-41.4,23.05-51.56,44.67-6.54,13.91-10.15,27.69-10.19,43.18-.07,31.62,0,63.24,0,94.86,0,26.11,0,52.22,0,78.34,0,10.9,4.74,22.34,12.45,30.05s19.47,12.92,30.05,12.45c23.03-1.03,42.5-18.67,42.5-42.5h0Z"/>
    <path class="cls-2" d="M1671.61,1755.57c-15.75,4.78-31.5,9.57-47.25,14.35-37.79,11.48-75.57,22.96-113.36,34.43l-136.86,41.57c-39.26,11.92-78.51,23.85-117.77,35.77-18.68,5.67-37.28,11.73-56.07,17.03-1.09.31-2.16.58-3.3.74l11.3-1.52c-1.19.09-2.31.07-3.49-.08l11.3,1.52c-1.15-.22-2.22-.54-3.31-.98l10.15,4.28c-1.1-.53-2.1-1.12-3.09-1.83l8.6,6.65c-1.57-1.25-2.91-2.65-4.16-4.22,2.22,2.87,4.43,5.73,6.65,8.6-1.6-2.19-2.87-4.49-3.99-6.96l4.28,10.15c-2.19-5.21-3.46-10.64-4.21-16.23.51,3.77,1.01,7.53,1.52,11.3-1.51-13.19-.48-26.96-.35-40.21.27-27.46.54-54.93.82-82.39.41-41.03.81-82.06,1.22-123.09.5-50.41,1-100.82,1.5-151.23.54-54.97,1.09-109.94,1.63-164.91.55-55.82,1.11-111.64,1.66-167.45.51-51.68,1.02-103.35,1.53-155.03.43-43.79.87-87.58,1.3-131.36.31-31.12.62-62.24.92-93.36.14-14.25.26-28.51.42-42.76.05-4.46.34-8.89.92-13.31l-1.52,11.3c1.14-7.53,3.06-14.82,5.97-21.86-1.43,3.38-2.86,6.77-4.28,10.15,2.08-4.75,4.54-9.23,7.71-13.35-2.22,2.87-4.43,5.73-6.65,8.6,1.79-2.18,3.68-4.14,5.9-5.9l-8.6,6.65c1.45-1.05,2.92-1.94,4.55-2.68l-10.15,4.28c15.41-6.04,31.2-11.23,46.78-16.82,37-13.27,73.99-26.55,110.99-39.82,44.7-16.04,89.4-32.08,134.11-48.12,38.4-13.78,76.8-27.56,115.2-41.33,18.07-6.48,36.05-13.34,54.24-19.46,1.4-.47,2.79-.85,4.26-1.05l-11.3,1.52c1.22-.09,2.38-.06,3.6.09l-11.3-1.52c1.19.23,2.28.55,3.41,1l-10.15-4.28c1.13.54,2.15,1.15,3.17,1.87l-8.6-6.65c1.61,1.27,2.97,2.69,4.24,4.3-2.22-2.87-4.43-5.73-6.65-8.6,1.62,2.23,2.9,4.57,4.01,7.09l-4.28-10.15c1.97,4.84,3.14,9.84,3.84,15.01l-1.52-11.3c1.46,12.94.59,26.4.59,39.39v210.19c0,51.34,0,102.68,0,154.03s0,112.58,0,168.87v556.86c0,14.48.03,28.96,0,43.44,0,5-.31,9.97-.97,14.94.51-3.77,1.01-7.53,1.52-11.3-1.13,7.42-3,14.61-5.82,21.57,1.43-3.38,2.86-6.77,4.28-10.15-2.02,4.7-4.42,9.14-7.48,13.25,2.22-2.87,4.43-5.73,6.65-8.6-1.97,2.49-4.11,4.73-6.62,6.69l8.6-6.65c-1.44,1.03-2.9,1.9-4.51,2.63l10.15-4.28c-.61.26-1.23.49-1.87.68-10.5,3.51-19.7,9.8-25.4,19.53-5.33,9.11-7.59,22.54-4.28,32.75s9.7,20.21,19.53,25.4c9.8,5.18,21.89,7.92,32.75,4.28,44.03-14.74,58.47-63.25,58.47-105.37v-35.75c0-21.2,0-42.4,0-63.6,0-28.76,0-57.52,0-86.28v-103.78c0-38.86,0-77.72,0-116.58,0-40.92,0-81.84,0-122.76s0-83.8,0-125.69,0-81.3,0-121.96c0-37.85,0-75.69,0-113.54,0-33.31,0-66.63,0-99.94,0-27.05,0-54.11,0-81.16,0-19.13,0-38.25,0-57.38,0-9.31,0-18.63,0-27.94-.02-17.73-3.27-34.61-11.26-50.49-12.98-25.81-44.05-39.78-71.55-29.92-17.13,6.15-34.26,12.29-51.4,18.44-32.56,11.68-65.12,23.37-97.68,35.05-38.97,13.98-77.94,27.96-116.91,41.95-35.86,12.87-71.72,25.73-107.58,38.6-23.72,8.51-47.44,17.02-71.16,25.53-4.45,1.59-8.9,3.16-13.34,4.79-4.06,1.49-8.13,3.06-11.98,5.02-11.39,5.79-19.59,15.47-26.79,25.7-6.29,8.95-10.52,19.87-13.6,30.29-3.36,11.37-4.96,23.58-5.22,35.4-.13,6.07-.13,12.14-.19,18.21-.16,16.33-.32,32.67-.49,49-.25,24.95-.49,49.9-.74,74.86-.32,31.82-.63,63.64-.95,95.46-.37,36.89-.73,73.79-1.1,110.68-.4,40.17-.8,80.34-1.19,120.51-.41,41.82-.83,83.63-1.24,125.45-.41,41.33-.82,82.66-1.23,123.99-.39,39.21-.78,78.43-1.16,117.64-.35,35.3-.7,70.6-1.05,105.9-.29,29.59-.59,59.18-.88,88.77-.22,22.16-.44,44.31-.66,66.47-.13,12.74-.25,25.49-.38,38.23-.02,2.32-.05,4.63-.07,6.95-.06,10.42,1.11,21.11,3.63,31.22,5.78,23.21,22.43,46.44,46.97,51.86,20.7,4.58,40.73-4.1,60.22-10.02,29-8.81,57.99-17.62,86.99-26.42,38.55-11.71,77.09-23.42,115.64-35.13,38.55-11.71,77.1-23.42,115.66-35.13,29.49-8.96,58.98-17.92,88.47-26.88,11.24-3.41,22.48-6.83,33.72-10.24,10.4-3.16,19.86-10.06,25.4-19.53s7.59-22.54,4.28-32.75c-6.94-21.44-29.5-36.6-52.28-29.68Z"/>
    <path class="cls-2" d="M412.71,1182.66c14.19-.07,28.37-.14,42.56-.21,34.07-.17,68.14-.34,102.21-.51,41.22-.2,82.44-.41,123.67-.61,35.64-.18,71.28-.35,106.93-.53,17.32-.09,34.68.19,51.99-.26.24,0,.49,0,.74,0,14.38-.07,28.17-12.6,27.5-27.5s-12.08-27.58-27.5-27.5c-14.19.07-28.37.14-42.56.21-34.07.17-68.14.34-102.21.51-41.22.2-82.44.41-123.67.61-35.64.18-71.28.35-106.93.53-17.32.09-34.68-.19-51.99.26-.24,0-.49,0-.74,0-14.38.07-28.17,12.6-27.5,27.5.66,14.84,12.08,27.58,27.5,27.5h0Z"/>
    <g>
      <path class="cls-2" d="M664.17,1380.11c28.99-24.11,57.97-48.23,86.96-72.34,46.16-38.4,92.32-76.8,138.48-115.2,10.54-8.77,21.08-17.54,31.62-26.3,11.1-9.24,10.26-29.47,0-38.89-11.81-10.84-27.05-9.85-38.89,0-28.99,24.11-57.97,48.23-86.96,72.34-46.16,38.4-92.32,76.8-138.48,115.2-10.54,8.77-21.08,17.54-31.62,26.3-11.1,9.24-10.26,29.47,0,38.89,11.81,10.84,27.05,9.85,38.89,0h0Z"/>
      <path class="cls-2" d="M611.97,977.64c31.23,21.84,62.46,43.67,93.69,65.51,49.42,34.55,98.83,69.1,148.25,103.65,11.34,7.93,22.67,15.85,34.01,23.78,11.82,8.27,31.07,2.54,37.63-9.87,7.44-14.07,2.75-28.8-9.87-37.63-31.23-21.84-62.46-43.67-93.69-65.51-49.42-34.55-98.83-69.1-148.25-103.65-11.34-7.93-22.67-15.85-34.01-23.78s-31.07-2.54-37.63,9.87c-7.44,14.07-2.75,28.8,9.87,37.63h0Z"/>
    </g>
  </g>
</svg>