<?xml version="1.0" encoding="UTF-8"?>
<svg id="Layer_2" data-name="Layer 2" xmlns="http://www.w3.org/2000/svg" viewBox="0 0 1187.45 1758.17">
  <defs>
    <style>
      .cls-1 {
        stroke-width: 60px;
      }

      .cls-1, .cls-2 {
        fill: none;
        stroke: #f41700;
        stroke-miterlimit: 10;
      }

      .cls-2 {
        stroke-width: 59.55px;
      }
    </style>
  </defs>
  <g id="Layer_1-2" data-name="Layer 1">
    <path class="cls-1" d="M690.04,1728.17H99.22c-38.23,0-69.22-30.99-69.22-69.23v-645.98c0-197.5,160.1-357.6,357.6-357.6h218.94c197.5,0,357.6,160.1,357.6,357.6v125.18"/>
    <circle class="cls-2" cx="497.07" cy="292.5" r="262.73"/>
    <path class="cls-2" d="M797.94,1705.34h0c-24.52,0-38.23-28.28-23.04-47.53l322.54-408.83c6.25-7.92,15.72-12.63,25.81-12.82h0c28.72-.56,44.93,32.76,26.76,55.01l-329.33,403.38c-5.57,6.83-13.92,10.79-22.73,10.79Z"/>
    <line class="cls-2" x1="1131.5" y1="1255.81" x2="787.68" y2="1686.01"/>
    <path class="cls-2" d="M1097.55,1693.13l-325.01-406.67c-16.4-20.52-1.41-50.85,24.85-50.29h0c9.18.2,17.8,4.45,23.53,11.63l325.01,406.67c15.86,19.84,2.39,49.29-22.99,50.28h0c-9.83.38-19.25-3.93-25.39-11.61Z"/>
    <line class="cls-2" x1="787.68" y1="1255.81" x2="1131.5" y2="1686.01"/>
  </g>
</svg>