<?xml version="1.0" encoding="UTF-8"?>
<svg id="Layer_2" data-name="Layer 2" xmlns="http://www.w3.org/2000/svg" viewBox="0 0 328.74 323.52">
  <defs>
    <style>
      .cls-1 {
        fill: #069484;
      }

      .cls-2 {
        fill: #fff;
      }
    </style>
  </defs>
  <g id="Layer_1-2" data-name="Layer 1">
    <rect class="cls-1" width="328.74" height="323.52"/>
    <path class="cls-2" d="M79.17,259.23c0-3.25.22-6.5.65-9.73l-.2,1.46c.67-4.92,1.84-9.77,3.51-14.46.46-1.3.96-2.58,1.5-3.85l-.55,1.31c1.89-4.46,4.22-8.73,6.97-12.73.77-1.12,1.57-2.22,2.4-3.29l-.86,1.11c2.94-3.8,6.26-7.31,9.89-10.46,1.02-.89,2.07-1.75,3.15-2.58l-1.11.86c3.83-2.95,7.94-5.52,12.28-7.66,1.23-.61,2.48-1.17,3.74-1.71l-1.31.55c4.55-1.92,9.28-3.37,14.12-4.31,1.39-.27,2.79-.5,4.19-.69l-1.46.2c3.66-.49,7.34-.65,11.03-.65h32c3.19,0,6.38.06,9.56.39.73.08,1.46.16,2.19.26l-1.46-.2c4.92.67,9.78,1.84,14.46,3.51,1.3.46,2.58.96,3.85,1.5l-1.31-.55c4.46,1.89,8.73,4.22,12.73,6.97,1.12.77,2.22,1.57,3.29,2.4l-1.11-.86c3.8,2.94,7.31,6.26,10.46,9.89.89,1.02,1.75,2.07,2.58,3.15l-.86-1.11c2.95,3.83,5.52,7.94,7.66,12.28.61,1.23,1.17,2.48,1.71,3.74l-.55-1.31c1.92,4.55,3.37,9.28,4.31,14.12.27,1.39.5,2.78.69,4.19l-.2-1.46c.43,3.22.65,6.47.65,9.73,0,1.41.61,2.89,1.61,3.89s2.52,1.67,3.89,1.61,2.9-.53,3.89-1.61,1.61-2.4,1.61-3.89c0-5.47-.61-10.96-1.73-16.31s-2.82-10.23-4.94-15.11c-1.91-4.4-4.26-8.61-7.01-12.55-2.97-4.25-6.31-8.27-10.04-11.87-3.73-3.59-7.86-6.83-12.22-9.63s-9.14-5.13-14.03-7.04c-4.57-1.78-9.32-3.09-14.15-3.9-4.51-.76-9.07-1.2-13.65-1.2-1.71,0-3.43,0-5.14,0h-28.17c-2.28,0-4.55.01-6.83.17-5.4.37-10.79,1.24-16,2.7s-10.02,3.4-14.7,5.81-8.95,5.31-13.04,8.56c-3.73,2.96-7.16,6.29-10.24,9.93-3.36,3.97-6.39,8.23-8.92,12.78s-4.62,9.44-6.2,14.43-2.62,10.46-3.17,15.83c-.25,2.46-.37,4.93-.37,7.4,0,1.41.61,2.89,1.61,3.89s2.52,1.67,3.89,1.61,2.9-.53,3.89-1.61,1.61-2.4,1.61-3.89h0Z"/>
    <path class="cls-2" d="M205.17,111.13c0,2.14-.14,4.27-.43,6.39l.2-1.46c-.56,4.1-1.65,8.12-3.26,11.94l.55-1.31c-1.59,3.77-3.67,7.32-6.17,10.55l.86-1.11c-2.46,3.18-5.32,6.03-8.5,8.5l1.11-.86c-3.24,2.5-6.79,4.57-10.55,6.17l1.31-.55c-3.82,1.6-7.83,2.7-11.94,3.26l1.46-.2c-4.24.57-8.53.57-12.77,0l1.46.2c-4.1-.56-8.12-1.65-11.94-3.26l1.31.55c-3.77-1.59-7.32-3.67-10.55-6.17l1.11.86c-3.18-2.46-6.03-5.32-8.5-8.5l.86,1.11c-2.5-3.24-4.57-6.79-6.17-10.55l.55,1.31c-1.6-3.82-2.7-7.83-3.26-11.94l.2,1.46c-.57-4.24-.57-8.53,0-12.77l-.2,1.46c.56-4.1,1.65-8.12,3.26-11.94l-.55,1.31c1.59-3.77,3.67-7.32,6.17-10.55l-.86,1.11c2.46-3.18,5.32-6.03,8.5-8.5l-1.11.86c3.24-2.5,6.79-4.57,10.55-6.17l-1.31.55c3.82-1.6,7.83-2.7,11.94-3.26l-1.46.2c4.24-.57,8.53-.57,12.77,0l-1.46-.2c4.1.56,8.12,1.65,11.94,3.26l-1.31-.55c3.77,1.59,7.32,3.67,10.55,6.17l-1.11-.86c3.18,2.46,6.03,5.32,8.5,8.5l-.86-1.11c2.5,3.24,4.57,6.79,6.17,10.55l-.55-1.31c1.6,3.82,2.7,7.83,3.26,11.94l-.2-1.46c.28,2.12.42,4.25.43,6.39,0,1.41.61,2.89,1.61,3.89s2.52,1.67,3.89,1.61,2.9-.53,3.89-1.61,1.61-2.4,1.61-3.89c0-5.42-.83-10.94-2.51-16.1s-3.95-9.81-7-14.08c-1.63-2.28-3.39-4.48-5.34-6.5s-4.1-3.81-6.33-5.53c-4.18-3.21-8.87-5.63-13.81-7.45s-10.51-2.84-15.91-3.04c-2.54-.1-5.08,0-7.6.31-2.9.35-5.77.83-8.59,1.63-5.05,1.43-9.97,3.64-14.35,6.53s-8.34,6.31-11.65,10.33c-1.79,2.17-3.46,4.44-4.91,6.85s-2.65,5-3.73,7.63c-2.06,5-3.17,10.33-3.59,15.71s.1,11.05,1.39,16.37,3.31,10.07,6.02,14.55,6.05,8.55,9.93,12,8.28,6.45,13.04,8.6c2.6,1.18,5.27,2.22,8.02,2.99s5.7,1.26,8.6,1.6c5.48.64,11.05.28,16.45-.81,5.18-1.05,10.24-2.99,14.85-5.56,2.28-1.27,4.41-2.74,6.47-4.34s4.04-3.31,5.85-5.2c3.57-3.74,6.68-8.04,8.98-12.68s4.13-9.87,4.94-15.14c.44-2.87.74-5.75.74-8.66,0-1.41-.61-2.89-1.61-3.89s-2.52-1.67-3.89-1.61-2.9.53-3.89,1.61-1.61,2.4-1.61,3.89Z"/>
  </g>
</svg>