<?xml version="1.0" encoding="UTF-8"?>
<svg id="Layer_2" data-name="Layer 2" xmlns="http://www.w3.org/2000/svg" viewBox="0 0 262.24 90.63">
  <defs>
    <style>
      .cls-1 {
        fill: #005145;
      }

      .cls-2 {
        fill: #14b8a6;
      }
    </style>
  </defs>
  <g id="Layer_1-2" data-name="Layer 1">
    <path class="cls-2" d="M262.24,45.31c0,25.03-20.29,45.32-45.32,45.32-13.55,0-25.7-5.94-34.01-15.36H2.66c-1.47,0-2.66-1.18-2.66-2.65,0-13.55,5.49-25.82,14.37-34.69,8.88-8.88,21.15-14.37,34.69-14.37h128.09c7.7-14.04,22.62-23.56,39.77-23.56,25.03,0,45.32,20.29,45.32,45.31Z"/>
    <path class="cls-1" d="M216.92,84.03c-11.11,0-21.7-4.78-29.06-13.13-1.25-1.42-3.06-2.23-4.95-2.23H6.78c.9-9.86,5.17-19,12.25-26.07,8.02-8.02,18.69-12.44,30.03-12.44h128.09c2.41,0,4.63-1.31,5.79-3.43,6.81-12.42,19.83-20.13,33.98-20.13,21.35,0,38.72,17.37,38.72,38.71s-17.37,38.72-38.72,38.72Z"/>
  </g>
</svg>