<?xml version="1.0" encoding="UTF-8"?>
<svg id="Layer_2" data-name="Layer 2" xmlns="http://www.w3.org/2000/svg" viewBox="0 0 2490.43 2490.43">
  <defs>
    <style>
      .cls-1 {
        fill: #069484;
      }

      .cls-2 {
        fill: none;
        stroke: #f9af2b;
        stroke-miterlimit: 10;
        stroke-width: 166px;
      }
    </style>
  </defs>
  <g id="Layer_1-2" data-name="Layer 1">
    <circle class="cls-2" cx="1245.21" cy="1245.21" r="1162.21"/>
    <g>
      <path class="cls-1" d="M722.58,2011.85c-2.73,0-5.44-.39-8.06-1.15-24.01-6.98-43.88-25.06-53.17-48.38-9.08-22.79-7.22-47.9,5.08-68.9,5.81-9.92,17.14-19.6,21.74-23.3,13.59-10.92,25.04-16.01,36.04-16.01h67.97c0-12.45-.1-24.94-.2-37.2-.6-71.38-1.23-145.19,19.19-216.6,25.39-88.84,83.5-177.04,163.61-248.35,10.85-9.66,23.21-18.46,35.17-26.97,24.78-17.64,50.41-35.88,55.7-57.63,12.12-49.81-7.53-66.61-53.12-99.87-13.36-9.75-27.18-19.82-40.73-32-56.09-50.4-99.99-107.37-130.46-169.34-32.46-66-49.12-136.63-49.53-209.91,0-.06.1-119.93.1-119.93h-67.67c-10.54,0-21.62-4.79-34.86-15.09-4.37-3.39-15.16-12.27-21.05-21.31-13.81-21.2-16.55-46.86-7.52-70.38,9.63-25.08,31.09-44.25,57.41-51.26,2.44-.65,4.95-.98,7.47-.98h1039.1c2.52,0,5.03.33,7.47.98,26.32,7.02,47.78,26.18,57.41,51.26,9.03,23.53,6.29,49.18-7.52,70.38-5.89,9.05-16.68,17.92-21.05,21.31-13.24,10.29-24.32,15.09-34.86,15.09h-67.97c0,12.45.1,24.94.2,37.2.6,71.38,1.23,145.19-19.19,216.6-13.11,45.87-34.57,91.15-63.77,134.57-26.81,39.87-59.4,77.15-96.85,110.8-13.55,12.17-27.37,22.25-40.73,32-45.6,33.26-65.24,50.06-53.12,99.87,5.24,21.53,32.14,41.01,58.16,59.85,12.22,8.85,24.86,18,35.69,27.73,56.09,50.4,99.99,107.37,130.46,169.34,32.46,66,49.12,136.63,49.53,209.91,0,.06-.1,119.93-.1,119.93h67.67c10.54,0,21.62,4.79,34.87,15.09,4.37,3.39,15.16,12.27,21.05,21.31,14.92,22.91,16.67,51.67,4.68,76.92-12.15,25.58-35.8,42.61-63.27,45.55-1.03.11-2.06.17-3.09.17-.01,0-1037.87-1.29-1037.87-1.29ZM1536.6,1854.1v-162.95c0-47.6-45.58-132.3-86.49-178.55-21.06-23.81-45.32-42.83-68.79-61.23-54.51-42.73-110.87-86.92-118.79-185.13-10.02-124.13,54.03-174.97,115.97-224.13,24.28-19.27,49.39-39.2,71.61-64.33,40.91-46.25,86.49-130.95,86.49-178.55v-162.95h-582.78v162.95c0,47.59,45.58,132.3,86.49,178.55,21.06,23.81,45.32,42.83,68.79,61.23,54.51,42.73,110.87,86.92,118.79,185.13,10.02,124.13-54.03,174.97-115.97,224.13-24.28,19.27-49.39,39.2-71.61,64.33-40.91,46.25-86.49,130.95-86.49,178.55v162.95h582.78Z"/>
      <path class="cls-1" d="M1764.77,506.29c33.33,8.89,53.14,46.97,33.06,77.8-4.57,7.01-23.69,23.23-31.61,23.23h-96.69c-1.85,91.45,7.22,186.09-18.14,274.83-25.59,89.51-83.58,170.19-152.12,231.77-54.88,49.31-124.92,68.77-102.65,160.29,10.87,44.68,68.76,71.84,102.65,102.29,103.81,93.27,169.59,215.63,170.38,357.84l-.12,148.77h96.69c7.93,0,27.05,16.21,31.61,23.23,20.32,31.2-1.06,73.92-37.38,77.81l-1037.83-1.29c-31.33-9.11-48.26-45.59-31.16-74.78,4.48-7.66,24.3-24.96,32.76-24.96h96.69c1.85-91.45-7.22-186.09,18.14-274.83,25.87-90.49,85.42-172.72,155-234.66,33.76-30.05,88.76-54.21,99.76-99.4,22.27-91.52-47.77-110.99-102.65-160.29-103.81-93.27-169.59-215.63-170.38-357.84l.12-148.77h-96.69c-7.93,0-27.05-16.21-31.61-23.23-20.08-30.83-.28-68.91,33.06-77.8h1039.11ZM1565.6,607.31h-640.78v191.95c0,60.75,54.13,152.94,93.77,197.76,72.19,81.61,170.3,104.39,180.4,229.47,12.38,153.44-98.35,174.15-180.4,266.91-39.64,44.82-93.77,137.01-93.77,197.76v191.95h640.78v-191.95c0-60.75-54.13-152.94-93.77-197.76-72.19-81.61-170.3-104.39-180.4-229.47-12.38-153.44,98.35-174.15,180.4-266.91,39.64-44.82,93.77-137.01,93.77-197.76v-191.95Z"/>
    </g>
  </g>
</svg>