<?xml version="1.0" encoding="UTF-8"?>
<svg id="Layer_2" data-name="Layer 2" xmlns="http://www.w3.org/2000/svg" viewBox="0 0 226.1 235.35">
  <defs>
    <style>
      .cls-1 {
        stroke-width: 22.28px;
      }

      .cls-1, .cls-2 {
        fill: none;
        stroke: #fff;
        stroke-miterlimit: 10;
      }

      .cls-2 {
        stroke-width: 19.63px;
      }
    </style>
  </defs>
  <g id="Layer_1-2" data-name="Layer 1">
    <g>
      <path class="cls-2" d="M149.88,141.14c0,6.69,2.72,12.75,7.1,17.13,4.38,4.38,10.44,7.1,17.13,7.1h42.17v23.76c0,20.11-16.31,36.41-36.42,36.41H46.23c-20.12,0-36.42-16.29-36.42-36.41v-92.13c0-19.56,15.4-35.51,34.73-36.37.56-.04,1.13-.05,1.69-.05h133.63c2.02,0,4.01.17,5.94.48,17.28,2.83,30.48,17.84,30.48,35.94v19.91h-42.17c-13.38,0-24.23,10.84-24.23,24.23Z"/>
      <path class="cls-2" d="M216.28,116.91v48.46h-42.17c-6.69,0-12.75-2.72-17.13-7.1-4.38-4.38-7.1-10.44-7.1-17.13,0-13.38,10.84-24.23,24.23-24.23h42.17Z"/>
      <path class="cls-2" d="M216.28,116.91v48.46h-42.17c-6.69,0-12.75-2.72-17.13-7.1-4.38-4.38-7.1-10.44-7.1-17.13,0-13.38,10.84-24.23,24.23-24.23h42.17Z"/>
      <path class="cls-1" d="M185.81,61.06c-1.93-.32-3.92-.48-5.94-.48H46.23c-.56,0,37.16-16.64,36.6-16.6L153.89,11.95c4.7-2.1,10.2.01,12.28,4.71l19.12,42.96c.2.47.38.95.51,1.43Z"/>
    </g>
  </g>
</svg>