<?xml version="1.0" encoding="UTF-8"?>
<svg id="Layer_2" data-name="Layer 2" xmlns="http://www.w3.org/2000/svg" viewBox="0 0 145.49 199.74">
  <defs>
    <style>
      .cls-1 {
        fill: none;
      }

      .cls-1, .cls-2 {
        stroke: #f43f5e;
        stroke-miterlimit: 10;
        stroke-width: 9px;
      }

      .cls-2 {
        fill: rgba(244, 63, 94, .49);
      }

      .cls-3 {
        fill: #f43f5e;
      }
    </style>
  </defs>
  <g id="Layer_1-2" data-name="Layer 1">
    <g>
      <polygon class="cls-2" points="138.49 4.5 138.49 157.69 104.1 157.69 104.1 194.05 4.5 194.05 4.5 4.5 138.49 4.5"/>
      <line class="cls-1" x1="4.5" y1="51.48" x2="138.49" y2="51.48"/>
      <line class="cls-1" x1="4.5" y1="99.27" x2="138.49" y2="99.27"/>
      <line class="cls-1" x1="2.79" y1="144.21" x2="136.78" y2="144.21"/>
      <line class="cls-1" x1="61.08" y1="23.29" x2="81.91" y2="23.29"/>
      <line class="cls-1" x1="61.08" y1="75.38" x2="81.91" y2="75.38"/>
      <line class="cls-1" x1="61.08" y1="121.74" x2="81.91" y2="121.74"/>
      <line class="cls-1" x1="61.08" y1="166.68" x2="81.91" y2="166.68"/>
      <path class="cls-3" d="M145.15,172.03c-5.55,3.51-10.32,7.87-14.92,12.47-4.54,4.61-8.9,9.36-12.65,14.67,0,0-5.1-4.93-5.1-4.93,5.18-3.93,9.79-8.44,14.24-13.13,4.44-4.75,8.64-9.67,11.96-15.33,0,0,6.47,6.26,6.47,6.26h0Z"/>
      <path class="cls-3" d="M119.85,164.69c3.19,5.94,7.29,11.16,11.63,16.23,4.36,5.01,8.88,9.85,14,14.13,0,0-5.31,4.71-5.31,4.71-3.63-5.59-7.89-10.67-12.35-15.59-4.51-4.92-9.2-9.61-14.72-13.49,0,0,6.73-5.97,6.73-5.97h0Z"/>
    </g>
  </g>
</svg>