<?xml version="1.0" encoding="UTF-8"?>
<svg id="Layer_2" data-name="Layer 2" xmlns="http://www.w3.org/2000/svg" viewBox="0 0 174.62 174.62">
  <defs>
    <style>
      .cls-1 {
        fill: #2dd4bf;
      }

      .cls-2 {
        fill: rgba(45, 212, 191, .33);
        stroke-width: 12.02px;
      }

      .cls-2, .cls-3 {
        stroke: #2dd4bf;
        stroke-miterlimit: 10;
      }

      .cls-3 {
        fill: none;
        stroke-width: 16.32px;
      }
    </style>
  </defs>
  <g id="Layer_1-2" data-name="Layer 1">
    <g>
      <rect class="cls-2" x="37.47" y="6.01" width="131.15" height="132.61" rx="12.82" ry="12.82"/>
      <path class="cls-3" d="M8.16,36.78v101.84c0,15.38,12.46,27.84,27.84,27.84h99.32"/>
      <path class="cls-1" d="M95.29,33.9c2.93-.77,6.92-1.5,11.68-1.51,4.82,0,8.86.74,11.81,1.51,2.58,1.28,7.56,4.17,11.73,9.85,4.22,5.75,5.48,11.44,5.92,14.29v7.18c0,3.37-1.14,6.25-3.42,8.64-2.28,2.4-6.42,5.46-12.4,9.2l-6.06,3.82c-.9.52-1.35,1.31-1.35,2.36v2.13h-20.32c-1.15-3.78-1.04-7.19.34-10.21.75-1.64,2.04-3.27,3.87-4.88,1.83-1.61,3.46-2.94,4.88-3.98,1.42-1.05,3.52-2.47,6.29-4.27l5.72-3.7c.9-.67,1.35-1.5,1.35-2.47v-4.04c-.06-.45-.18-.99-.39-1.57-.48-1.29-1.22-2.17-1.74-2.69-.58-.51-3.24-2.72-7.24-2.61-4.13.12-6.71,2.63-7.23,3.16-.45.35-1.19,1.04-1.69,2.14-.27.6-.39,1.15-.45,1.57v4.92c0,1-.81,1.82-1.82,1.82h-17.47c-1,0-1.82-.81-1.82-1.82v-4.69c.34-2.67,1.46-8.54,5.92-14.29,5.04-6.49,11.37-9,13.89-9.85ZM113.19,107.41h0c0,4.96-4.02,8.98-8.98,8.98h-3.14c-4.96,0-8.98-4.02-8.98-8.98h0c0-4.96,4.02-8.98,8.98-8.98h3.14c4.96,0,8.98,4.02,8.98,8.98Z"/>
    </g>
  </g>
</svg>